<svg width="8204" height="2411" viewBox="0 0 8204 2411" fill="currentColor" xmlns="http://www.w3.org/2000/svg">
<rect y="1136.72" width="475" height="963" rx="234" transform="rotate(-22.3768 0 1136.72)"/>
<rect x="376.313" y="719.008" width="475" height="1449" rx="234" transform="rotate(-22.3768 376.313 719.008)"/>
<rect x="778.515" y="364.172" width="475" height="1800" rx="234" transform="rotate(-22.3768 778.515 364.172)"/>
<path d="M3615.64 1916H3179.75L3360.39 1067.77L2895.04 1916H2628L2539.65 1038.32L2351.15 1916H2174.43L2439.51 669.177H2940.2L3001.07 1372.11L3378.06 669.177H3882.68L3615.64 1916ZM4210.09 1916H3811.5L3990.18 1071.69H4392.7L4210.09 1916ZM4443.75 814.476C4443.75 844.583 4437.2 870.763 4424.11 893.016C4412.33 915.269 4395.97 934.25 4375.03 949.958C4355.39 965.666 4332.48 977.447 4306.3 985.301C4280.12 993.155 4253.29 997.082 4225.8 997.082C4173.44 997.082 4129.59 984.646 4094.25 959.775C4058.9 934.904 4041.23 895.634 4041.23 841.965C4041.23 813.167 4047.12 787.642 4058.9 765.389C4070.68 741.827 4086.39 722.846 4106.03 708.447C4126.97 692.739 4150.53 680.958 4176.71 673.104C4204.2 665.25 4232.35 661.323 4261.14 661.323C4312.2 661.323 4355.39 673.759 4390.74 698.63C4426.08 723.501 4443.75 762.116 4443.75 814.476ZM5207.49 1071.69H5525.58L5364.57 1835.5C5352.79 1894.4 5333.15 1948.73 5305.66 1998.47C5278.18 2048.21 5239.56 2091.41 5189.82 2128.06C5141.39 2164.71 5079.86 2193.51 5005.25 2214.45C4931.95 2235.4 4842.28 2245.87 4736.25 2245.87C4716.61 2245.87 4693.05 2245.21 4665.56 2243.9C4638.07 2243.9 4609.93 2243.25 4581.13 2241.94C4552.34 2241.94 4524.85 2241.29 4498.67 2239.98C4472.49 2238.67 4451.54 2237.36 4435.83 2236.05L4473.14 2094.68C4515.03 2101.22 4557.57 2104.5 4600.77 2104.5C4645.27 2105.81 4683.24 2106.46 4714.65 2106.46C4753.92 2106.46 4786.65 2102.53 4812.83 2094.68C4840.32 2088.13 4862.57 2077.01 4879.59 2061.3C4897.91 2045.59 4912.31 2024.65 4922.78 1998.47C4934.56 1972.29 4943.73 1940.22 4950.27 1902.26L4973.83 1774.63H4960.09C4952.23 1786.41 4940.45 1800.81 4924.75 1817.82C4910.35 1833.53 4891.37 1849.24 4867.8 1864.95C4844.24 1879.35 4816.1 1891.78 4783.37 1902.26C4751.96 1911.42 4715.96 1916 4675.38 1916C4629.57 1916 4590.3 1909.45 4557.57 1896.36C4526.16 1881.97 4500.63 1862.99 4480.99 1839.42C4461.36 1814.55 4446.96 1785.75 4437.8 1753.03C4428.63 1719 4424.05 1682.34 4424.05 1643.07C4424.05 1626.06 4425.36 1599.88 4427.98 1564.53C4430.6 1529.19 4436.49 1489.27 4445.65 1444.76C4456.12 1400.25 4470.52 1355.09 4488.85 1309.28C4508.48 1262.15 4534.01 1219.61 4565.43 1181.65C4598.15 1143.69 4638.07 1112.27 4685.2 1087.4C4733.63 1062.53 4791.88 1050.1 4859.95 1050.1C4880.89 1050.1 4903.8 1052.06 4928.67 1055.99C4953.54 1059.91 4977.76 1067.11 5001.32 1077.59C5024.88 1088.06 5045.83 1103.11 5064.15 1122.75C5082.48 1142.38 5096.88 1167.91 5107.35 1199.32H5119.13L5207.49 1071.69ZM4987.58 1242.52C4956.16 1242.52 4929.98 1259.54 4909.04 1293.57C4888.09 1326.3 4871.08 1364.91 4857.99 1409.42C4844.9 1453.92 4835.08 1498.43 4828.53 1542.93C4823.3 1586.13 4820.68 1618.2 4820.68 1639.15C4820.68 1665.33 4824.61 1687.58 4832.46 1705.91C4841.62 1722.92 4857.33 1731.43 4879.59 1731.43C4892.68 1731.43 4905.11 1728.16 4916.89 1721.61C4929.98 1715.07 4941.76 1707.87 4952.23 1700.01C4964.02 1690.85 4973.83 1681.69 4981.69 1672.53C4990.85 1663.36 4997.4 1656.16 5001.32 1650.93L5073.97 1307.31C5063.5 1292.92 5051.06 1278.52 5036.67 1264.12C5023.58 1249.72 5007.21 1242.52 4987.58 1242.52ZM5920.49 1916H5521.9L5700.57 1071.69H6103.09L5920.49 1916ZM6154.14 814.476C6154.14 844.583 6147.6 870.763 6134.51 893.016C6122.73 915.269 6106.36 934.25 6085.42 949.958C6065.78 965.666 6042.88 977.447 6016.7 985.301C5990.52 993.155 5963.68 997.082 5936.19 997.082C5883.83 997.082 5839.98 984.646 5804.64 959.775C5769.3 934.904 5751.62 895.634 5751.62 841.965C5751.62 813.167 5757.52 787.642 5769.3 765.389C5781.08 741.827 5796.79 722.846 5816.42 708.447C5837.36 692.739 5860.93 680.958 5887.11 673.104C5914.6 665.25 5942.74 661.323 5971.54 661.323C6022.59 661.323 6065.78 673.759 6101.13 698.63C6136.47 723.501 6154.14 762.116 6154.14 814.476ZM6735.28 1050.1C6891.05 1050.1 7004.28 1077.59 7074.96 1132.56C7149.58 1190.16 7186.88 1285.72 7186.88 1419.23C7186.88 1501.7 7173.14 1576.31 7145.65 1643.07C7118.16 1708.52 7079.54 1762.85 7029.8 1806.04C6930.32 1889.82 6786.33 1931.71 6597.83 1931.71C6436.82 1931.71 6321.63 1900.95 6252.26 1839.42C6177.64 1775.28 6140.34 1679.07 6140.34 1550.79C6140.34 1465.7 6157.35 1388.47 6191.39 1319.1C6226.73 1249.72 6277.13 1192.12 6342.58 1146.31C6438.13 1082.17 6569.03 1050.1 6735.28 1050.1ZM6601.76 1798.19C6634.48 1798.19 6662.63 1779.86 6686.19 1743.21C6711.06 1706.56 6730.7 1662.05 6745.09 1609.69C6759.49 1556.02 6769.97 1501.05 6776.51 1444.76C6784.36 1387.16 6788.29 1337.42 6788.29 1295.53C6788.29 1258.88 6784.36 1231.39 6776.51 1213.07C6769.97 1193.43 6754.91 1183.61 6731.35 1183.61C6696.01 1183.61 6665.25 1202.59 6639.07 1240.56C6614.19 1278.52 6593.9 1323.68 6578.2 1376.04C6562.49 1428.4 6550.71 1482.07 6542.85 1537.04C6536.31 1592.02 6533.04 1636.53 6533.04 1670.56C6533.04 1755.65 6555.94 1798.19 6601.76 1798.19ZM7848.96 1319.1C7850.27 1312.55 7851.58 1306.01 7852.89 1299.46C7854.2 1292.92 7854.86 1285.72 7854.86 1277.86C7854.86 1254.3 7850.27 1232.7 7841.11 1213.07C7833.26 1192.12 7816.89 1181.65 7792.02 1181.65C7769.77 1181.65 7747.52 1191.47 7725.26 1211.1C7703.01 1229.43 7691.88 1254.3 7691.88 1285.72C7691.88 1306.66 7697.12 1323.68 7707.59 1336.77C7719.37 1348.55 7734.43 1358.37 7752.75 1366.22C7771.08 1374.07 7791.37 1380.62 7813.62 1385.85C7837.18 1391.09 7860.09 1396.33 7882.34 1401.56C7913.76 1409.42 7943.21 1419.23 7970.7 1431.02C7999.5 1441.49 8025.03 1455.89 8047.28 1474.21C8069.53 1492.54 8087.2 1515.45 8100.29 1542.93C8113.38 1569.11 8119.93 1601.84 8119.93 1641.11C8119.93 1696.09 8106.84 1742.56 8080.66 1780.52C8055.79 1817.17 8020.44 1847.28 7974.63 1870.84C7930.12 1893.09 7877.11 1908.8 7815.59 1917.96C7755.37 1927.13 7690.58 1931.71 7621.2 1931.71C7515.17 1931.71 7427.47 1923.85 7358.09 1908.15C7288.71 1892.44 7240.28 1877.38 7212.79 1862.99L7254.02 1666.64H7519.1C7517.79 1673.18 7517.13 1679.73 7517.13 1686.27C7517.13 1691.51 7517.13 1697.4 7517.13 1703.94C7517.13 1734.05 7523.68 1758.27 7536.77 1776.59C7551.17 1793.61 7575.38 1802.12 7609.42 1802.12C7647.38 1802.12 7674.21 1791.64 7689.92 1770.7C7706.94 1748.45 7715.45 1728.16 7715.45 1709.83C7715.45 1691.51 7708.25 1675.8 7693.85 1662.71C7680.76 1648.31 7663.74 1636.53 7642.8 1627.37C7621.85 1616.89 7598.29 1608.38 7572.11 1601.84C7547.24 1593.99 7523.02 1586.79 7499.46 1580.24C7482.44 1576.31 7462.81 1569.77 7440.56 1560.61C7419.61 1551.44 7399.32 1538.35 7379.69 1521.34C7360.05 1504.32 7343.69 1482.72 7330.6 1456.54C7317.51 1429.05 7310.97 1395.02 7310.97 1354.44C7310.97 1296.84 7324.71 1249.06 7352.2 1211.1C7381 1171.83 7417.65 1140.42 7462.16 1116.86C7507.97 1093.29 7559.02 1076.28 7615.31 1065.8C7672.9 1055.33 7730.5 1050.1 7788.1 1050.1C7860.09 1050.1 7928.16 1056.64 7992.3 1069.73C8056.44 1082.82 8108.8 1099.84 8149.38 1120.78L8104.22 1319.1H7848.96Z"/>
</svg>
